<?xml version="1.0" encoding="UTF-8"?>
<svg width="180" height="180" viewBox="0 0 200 200" fill="none" xmlns="http://www.w3.org/2000/svg">
  <!-- Circle background -->
  <circle cx="100" cy="100" r="90" fill="#0F172A"/>

  <!-- Brain-chat combo -->
  <g transform="translate(45, 45)">
    <path d="M30 10C18 10 10 18 10 30V60C10 72 18 80 30 80H70C82 80 90 72 90 60V30C90 18 82 10 70 10H30Z" fill="white"/>
    <path d="M40 30C40 26 44 24 47 26C50 28 54 28 57 26C60 24 64 26 64 30C64 34 60 36 57 34C54 32 50 32 47 34C44 36 40 34 40 30Z" fill="#0F172A"/>
    <circle cx="42" cy="50" r="4" fill="#0F172A"/>
    <circle cx="58" cy="50" r="4" fill="#0F172A"/>
  </g>

  <!-- Text -->
  <text x="100" y="175" font-family="Verdana" font-size="22" text-anchor="middle" fill="#0F172A">Quizly</text>
</svg>
